<mxfile host="app.diagrams.net" modified="2022-10-17T11:45:27.710Z" agent="5.0 (Windows NT 10.0; Win64; x64) AppleWebKit/537.36 (KHTML, like Gecko) Chrome/106.0.0.0 Safari/537.36" etag="DY6OFb-ZD5R50I6V9CiM" version="15.0.6" type="github">
  <diagram id="wFE0QG_FPsp0jaGvCLVb" name="Page-1">
    <mxGraphModel dx="1097" dy="603" grid="1" gridSize="10" guides="1" tooltips="1" connect="1" arrows="1" fold="1" page="1" pageScale="1" pageWidth="850" pageHeight="1100" math="0" shadow="0">
      <root>
        <mxCell id="0" />
        <mxCell id="1" parent="0" />
        <mxCell id="_5mSTuPxr-ZiKRkBDSY7-1" value="" style="swimlane;fontStyle=2;childLayout=stackLayout;horizontal=1;startSize=28;horizontalStack=1;resizeParent=1;resizeParentMax=0;resizeLast=0;collapsible=0;marginBottom=0;swimlaneFillColor=none;fontFamily=Permanent Marker;fontSize=16;points=[];verticalAlign=top;stackBorder=0;resizable=1;strokeWidth=2;sketch=1;disableMultiStroke=1;" parent="1" vertex="1">
          <mxGeometry x="60" y="30" width="720" height="550" as="geometry" />
        </mxCell>
        <object label="Feature Detection" status="New" id="_5mSTuPxr-ZiKRkBDSY7-2">
          <mxCell style="swimlane;strokeWidth=2;fontFamily=Permanent Marker;html=0;startSize=1;verticalAlign=bottom;spacingBottom=5;points=[];childLayout=stackLayout;stackBorder=20;stackSpacing=20;resizeLast=0;resizeParent=1;horizontalStack=0;collapsible=0;sketch=1;strokeColor=none;fillStyle=solid;fillColor=#A0522D;" parent="_5mSTuPxr-ZiKRkBDSY7-1" vertex="1">
            <mxGeometry y="28" width="180" height="522" as="geometry" />
          </mxCell>
        </object>
        <object label="Corner&lt;br&gt;&lt;span style=&quot;font-size: 10px ; font-weight: 400&quot;&gt;&lt;i&gt;Harris&lt;br&gt;Fast&lt;/i&gt;&lt;/span&gt;" placeholders="1" id="_5mSTuPxr-ZiKRkBDSY7-3">
          <mxCell style="whiteSpace=wrap;html=1;strokeWidth=2;fontStyle=1;spacingTop=0;rounded=1;arcSize=9;points=[];sketch=1;fontFamily=Permanent Marker;hachureGap=8;fillWeight=1;" parent="_5mSTuPxr-ZiKRkBDSY7-2" vertex="1">
            <mxGeometry x="20" y="21" width="140" height="80" as="geometry" />
          </mxCell>
        </object>
        <object label="Blob&lt;br&gt;&lt;span style=&quot;font-size: 10px ; font-weight: 400&quot;&gt;&lt;i&gt;LoG&lt;br&gt;DoH&lt;br&gt;DoG&lt;br&gt;&lt;/i&gt;&lt;/span&gt;&lt;span style=&quot;font-size: 10px ; font-weight: 400&quot;&gt;&lt;i&gt;Non-linear partial differentiation&amp;nbsp;&lt;/i&gt;&lt;/span&gt;" placeholders="1" id="_5mSTuPxr-ZiKRkBDSY7-4">
          <mxCell style="whiteSpace=wrap;html=1;strokeWidth=2;fontStyle=1;spacingTop=0;rounded=1;arcSize=9;points=[];sketch=1;fontFamily=Permanent Marker;hachureGap=8;fillWeight=1;" parent="_5mSTuPxr-ZiKRkBDSY7-2" vertex="1">
            <mxGeometry x="20" y="121" width="140" height="99" as="geometry" />
          </mxCell>
        </object>
        <object label="Learnable (CNN-based)&lt;br&gt;&lt;span style=&quot;font-size: 10px ; font-weight: 400&quot;&gt;&lt;i&gt;Key.Net&lt;br&gt;LIFT&lt;br&gt;SuperPoint&lt;br&gt;D2-Net&lt;br&gt;R2D2&lt;br&gt;ASLFeat&lt;br&gt;DISK&lt;br&gt;CAPS&lt;br&gt;POSFeat&lt;br&gt;&lt;/i&gt;&lt;/span&gt;" placeholders="1" id="_5mSTuPxr-ZiKRkBDSY7-5">
          <mxCell style="whiteSpace=wrap;html=1;strokeWidth=2;fontStyle=1;spacingTop=0;rounded=1;arcSize=9;points=[];sketch=1;fontFamily=Permanent Marker;hachureGap=8;fillWeight=1;" parent="_5mSTuPxr-ZiKRkBDSY7-2" vertex="1">
            <mxGeometry x="20" y="240" width="140" height="180" as="geometry" />
          </mxCell>
        </object>
        <object label="Feature Description" status="In progress" id="_5mSTuPxr-ZiKRkBDSY7-6">
          <mxCell style="swimlane;strokeWidth=2;fontFamily=Permanent Marker;html=0;startSize=1;verticalAlign=bottom;spacingBottom=5;points=[];childLayout=stackLayout;stackBorder=20;stackSpacing=20;resizeLast=0;resizeParent=1;horizontalStack=0;collapsible=0;sketch=1;strokeColor=none;fillStyle=solid;fillColor=#006600;" parent="_5mSTuPxr-ZiKRkBDSY7-1" vertex="1">
            <mxGeometry x="180" y="28" width="180" height="522" as="geometry" />
          </mxCell>
        </object>
        <object label="Handcrafted&lt;br&gt;&lt;span style=&quot;font-size: 10px ; font-weight: 400&quot;&gt;&lt;i&gt;Gradient-HOG&lt;br&gt;Intensity-BRIEF/BRISK&lt;/i&gt;&lt;/span&gt;" placeholders="1" id="_5mSTuPxr-ZiKRkBDSY7-7">
          <mxCell style="whiteSpace=wrap;html=1;strokeWidth=2;fontStyle=1;spacingTop=0;rounded=1;arcSize=9;points=[];sketch=1;fontFamily=Permanent Marker;hachureGap=8;fillWeight=1;" parent="_5mSTuPxr-ZiKRkBDSY7-6" vertex="1">
            <mxGeometry x="20" y="21" width="140" height="80" as="geometry" />
          </mxCell>
        </object>
        <object label="Learnable&lt;br&gt;&lt;i style=&quot;font-size: 10px ; font-weight: 400&quot;&gt;HardNet&lt;br&gt;SOSNet&lt;br&gt;LIFT&lt;br&gt;SuperPoint&lt;br&gt;D2-Net&lt;br&gt;R2D2&lt;br&gt;ASLFeat&lt;br&gt;DISK&lt;br&gt;CAPS&lt;br&gt;POSFeat&lt;/i&gt;" placeholders="1" id="_5mSTuPxr-ZiKRkBDSY7-8">
          <mxCell style="whiteSpace=wrap;html=1;strokeWidth=2;fontStyle=1;spacingTop=0;rounded=1;arcSize=9;points=[];sketch=1;fontFamily=Permanent Marker;hachureGap=8;fillWeight=1;" parent="_5mSTuPxr-ZiKRkBDSY7-6" vertex="1">
            <mxGeometry x="20" y="121" width="140" height="179" as="geometry" />
          </mxCell>
        </object>
        <object label="Detector Free&lt;br&gt;&lt;span style=&quot;font-size: 10px ; font-weight: 400&quot;&gt;&lt;i&gt;LoFTR&lt;br&gt;DKM&lt;/i&gt;&lt;/span&gt;" placeholders="1" id="p6Pdr9b1BTmdGcdEJl0a-14">
          <mxCell style="whiteSpace=wrap;html=1;strokeWidth=2;fontStyle=1;spacingTop=0;rounded=1;arcSize=9;points=[];sketch=1;fontFamily=Permanent Marker;hachureGap=8;fillWeight=1;" parent="_5mSTuPxr-ZiKRkBDSY7-6" vertex="1">
            <mxGeometry x="20" y="320" width="140" height="80" as="geometry" />
          </mxCell>
        </object>
        <object label="Feature Matching" status="Completed" id="_5mSTuPxr-ZiKRkBDSY7-9">
          <mxCell style="swimlane;strokeWidth=2;fontFamily=Permanent Marker;html=0;startSize=1;verticalAlign=bottom;spacingBottom=5;points=[];childLayout=stackLayout;stackBorder=20;stackSpacing=20;resizeLast=0;resizeParent=1;horizontalStack=0;collapsible=0;sketch=1;strokeColor=none;fillStyle=solid;fillColor=#1BA1E2;" parent="_5mSTuPxr-ZiKRkBDSY7-1" vertex="1">
            <mxGeometry x="360" y="28" width="180" height="522" as="geometry" />
          </mxCell>
        </object>
        <object label="Brutal Force&lt;br&gt;&lt;span style=&quot;font-weight: normal&quot;&gt;&lt;i&gt;&lt;font style=&quot;font-size: 10px&quot;&gt;Euclidean distance similarity&lt;/font&gt;&lt;/i&gt;&lt;/span&gt;" placeholders="1" id="_5mSTuPxr-ZiKRkBDSY7-10">
          <mxCell style="whiteSpace=wrap;html=1;strokeWidth=2;fontStyle=1;spacingTop=0;rounded=1;arcSize=9;points=[];sketch=1;fontFamily=Permanent Marker;hachureGap=8;fillWeight=1;" parent="_5mSTuPxr-ZiKRkBDSY7-9" vertex="1">
            <mxGeometry x="20" y="21" width="140" height="80" as="geometry" />
          </mxCell>
        </object>
        <object label="Graph Based&lt;br&gt;&lt;span style=&quot;font-size: 10px ; font-weight: 400&quot;&gt;&lt;i&gt;Delaunay Triangulation&lt;/i&gt;&lt;/span&gt;" placeholders="1" id="_5mSTuPxr-ZiKRkBDSY7-11">
          <mxCell style="whiteSpace=wrap;html=1;strokeWidth=2;fontStyle=1;spacingTop=0;rounded=1;arcSize=9;points=[];sketch=1;fontFamily=Permanent Marker;hachureGap=8;fillWeight=1;" parent="_5mSTuPxr-ZiKRkBDSY7-9" vertex="1">
            <mxGeometry x="20" y="121" width="140" height="80" as="geometry" />
          </mxCell>
        </object>
        <object label="Area Based&lt;br&gt;&lt;span style=&quot;font-size: 10px ; font-weight: 400&quot;&gt;&lt;i&gt;SIFT Flow&lt;/i&gt;&lt;/span&gt;" placeholders="1" id="_5mSTuPxr-ZiKRkBDSY7-12">
          <mxCell style="whiteSpace=wrap;html=1;strokeWidth=2;fontStyle=1;spacingTop=0;rounded=1;arcSize=9;points=[];sketch=1;fontFamily=Permanent Marker;hachureGap=8;fillWeight=1;" parent="_5mSTuPxr-ZiKRkBDSY7-9" vertex="1">
            <mxGeometry x="20" y="221" width="140" height="80" as="geometry" />
          </mxCell>
        </object>
        <object label="Learning Based&lt;br&gt;&lt;span style=&quot;font-size: 10px ; font-weight: 400&quot;&gt;&lt;i&gt;SuperGlue&lt;br&gt;&lt;/i&gt;&lt;/span&gt;&lt;span style=&quot;font-size: 10px ; font-weight: 400&quot;&gt;&lt;i&gt;LMCNet&lt;br&gt;OANet&lt;/i&gt;&lt;/span&gt;" placeholders="1" id="p6Pdr9b1BTmdGcdEJl0a-15">
          <mxCell style="whiteSpace=wrap;html=1;strokeWidth=2;fontStyle=1;spacingTop=0;rounded=1;arcSize=9;points=[];sketch=1;fontFamily=Permanent Marker;hachureGap=8;fillWeight=1;" parent="_5mSTuPxr-ZiKRkBDSY7-9" vertex="1">
            <mxGeometry x="20" y="321" width="140" height="80" as="geometry" />
          </mxCell>
        </object>
        <object label="Matching Removal&lt;br&gt;&lt;span style=&quot;font-size: 10px ; font-weight: 400&quot;&gt;&lt;i&gt;RANSAC like approaches&lt;br&gt;MAGSAC&lt;br&gt;DEGENSAC&lt;/i&gt;&lt;/span&gt;" placeholders="1" id="p6Pdr9b1BTmdGcdEJl0a-16">
          <mxCell style="whiteSpace=wrap;html=1;strokeWidth=2;fontStyle=1;spacingTop=0;rounded=1;arcSize=9;points=[];sketch=1;fontFamily=Permanent Marker;hachureGap=8;fillWeight=1;" parent="_5mSTuPxr-ZiKRkBDSY7-9" vertex="1">
            <mxGeometry x="20" y="421" width="140" height="80" as="geometry" />
          </mxCell>
        </object>
        <object label="Matching Application" status="Completed" id="p6Pdr9b1BTmdGcdEJl0a-1">
          <mxCell style="swimlane;strokeWidth=2;fontFamily=Permanent Marker;html=0;startSize=1;verticalAlign=bottom;spacingBottom=5;points=[];childLayout=stackLayout;stackBorder=20;stackSpacing=20;resizeLast=0;resizeParent=1;horizontalStack=0;collapsible=0;sketch=1;strokeColor=none;fillStyle=solid;fillColor=#1BA1E2;" parent="_5mSTuPxr-ZiKRkBDSY7-1" vertex="1">
            <mxGeometry x="540" y="28" width="180" height="522" as="geometry" />
          </mxCell>
        </object>
        <object label="Image Matching&lt;br&gt;&lt;span style=&quot;font-size: 10px ; font-weight: 400&quot;&gt;&lt;i&gt;HPatches&lt;/i&gt;&lt;/span&gt;" placeholders="1" id="p6Pdr9b1BTmdGcdEJl0a-2">
          <mxCell style="whiteSpace=wrap;html=1;strokeWidth=2;fontStyle=1;spacingTop=0;rounded=1;arcSize=9;points=[];sketch=1;fontFamily=Permanent Marker;hachureGap=8;fillWeight=1;" parent="p6Pdr9b1BTmdGcdEJl0a-1" vertex="1">
            <mxGeometry x="20" y="21" width="140" height="80" as="geometry" />
          </mxCell>
        </object>
        <object label="Visual Localization&lt;br&gt;&lt;span style=&quot;font-size: 10px ; font-weight: 400&quot;&gt;&lt;i&gt;Aachen Day-Night&lt;/i&gt;&lt;/span&gt;" placeholders="1" id="p6Pdr9b1BTmdGcdEJl0a-3">
          <mxCell style="whiteSpace=wrap;html=1;strokeWidth=2;fontStyle=1;spacingTop=0;rounded=1;arcSize=9;points=[];sketch=1;fontFamily=Permanent Marker;hachureGap=8;fillWeight=1;" parent="p6Pdr9b1BTmdGcdEJl0a-1" vertex="1">
            <mxGeometry x="20" y="121" width="140" height="80" as="geometry" />
          </mxCell>
        </object>
        <object label="3D Reconstruction&lt;br&gt;&lt;span style=&quot;font-size: 10px ; font-weight: 400&quot;&gt;&lt;i&gt;ETH Local Feature&lt;br&gt;IMC Photorism&lt;br&gt;The PragueParks datasets The Google Urban datasets&lt;/i&gt;&lt;/span&gt;" placeholders="1" id="p6Pdr9b1BTmdGcdEJl0a-4">
          <mxCell style="whiteSpace=wrap;html=1;strokeWidth=2;fontStyle=1;spacingTop=0;rounded=1;arcSize=9;points=[];sketch=1;fontFamily=Permanent Marker;hachureGap=8;fillWeight=1;" parent="p6Pdr9b1BTmdGcdEJl0a-1" vertex="1">
            <mxGeometry x="20" y="221" width="140" height="99" as="geometry" />
          </mxCell>
        </object>
      </root>
    </mxGraphModel>
  </diagram>
</mxfile>
